<?xml version="1.0" encoding="UTF-8"?>
<svg version="1.1" xmlns="http://www.w3.org/2000/svg" width="512" height="512">
<path d="M0 0 C2.65527344 1.25244141 2.65527344 1.25244141 5.359375 2.8515625 C6.88884766 3.74584961 6.88884766 3.74584961 8.44921875 4.65820312 C10.08310547 5.63176758 10.08310547 5.63176758 11.75 6.625 C12.90697352 7.30502178 14.06453713 7.98404047 15.22265625 8.66210938 C17.62665148 10.07067324 20.02805773 11.48350641 22.42773438 12.89941406 C27.9283488 16.14016978 33.46603409 19.31666323 39 22.5 C41.16684034 23.74969892 43.3335065 24.99969989 45.5 26.25 C47.10875 27.178125 47.10875 27.178125 48.75 28.125 C86.66666667 50 124.58333333 71.875 162.5 93.75 C163.57378906 94.3694751 164.64757812 94.9889502 165.75390625 95.62719727 C167.9076172 96.86976019 170.06126367 98.11243489 172.21484375 99.35522461 C177.23684262 102.25314623 182.25942807 105.15003349 187.28442383 108.04275513 C189.05045522 109.05947198 190.81627431 110.07655658 192.58203125 111.09375 C194.78734155 112.36400873 196.99304216 113.63359018 199.19921875 114.90234375 C200.20597656 115.48242188 201.21273438 116.0625 202.25 116.66015625 C203.12140625 117.16168213 203.9928125 117.66320801 204.890625 118.17993164 C205.91671875 118.7805542 206.9428125 119.38117676 208 120 C208.80812806 120.36977514 209.61625613 120.73955028 210.44887292 121.12053072 C217.43085579 124.61363684 217.43085579 124.61363684 218.92203641 128.24596381 C219.26446112 131.04538844 219.28580385 133.69678146 219.20254517 136.51620483 C219.21536154 138.10422942 219.21536154 138.10422942 219.22843683 139.72433531 C219.24491358 143.27285966 219.1899198 146.8166576 219.13525391 150.36474609 C219.13243323 152.90746957 219.13401638 155.45020119 219.13967896 157.99291992 C219.14195627 163.46753469 219.11359769 168.94062679 219.05730057 174.41492844 C218.9759616 182.32944541 218.94997973 190.2433864 218.93742065 198.15827604 C218.91554454 210.99988736 218.84902431 223.84086278 218.75439453 236.68212891 C218.66257704 249.15475283 218.59180667 261.62720392 218.54931641 274.10009766 C218.54668917 274.86916617 218.54406194 275.63823469 218.54135509 276.43060832 C218.52830453 280.28887381 218.51566749 284.14714052 218.50323606 288.00540805 C218.39960068 320.0040675 218.22349846 352.00194541 218 384 C200.66666667 394 183.33333333 404 166 414 C164.62437146 412.71034824 163.29233607 411.37310707 162 410 C162 409.34 162 408.68 162 408 C158.04 410.31 154.08 412.62 150 415 C151.485 417.97 151.485 417.97 153 421 C151.60823368 421.96423026 150.2113777 422.92111602 148.8125 423.875 C148.03519531 424.40867187 147.25789063 424.94234375 146.45703125 425.4921875 C144.0323391 426.98015439 141.6666501 428.02428078 139 429 C136 425.25 136 425.25 136 423 C132.04 425.31 128.08 427.62 124 430 C125.485 432.97 125.485 432.97 127 436 C120.23385809 440.70298121 113.21427503 444.77769821 106 448.75 C98.81107379 452.74175824 91.63363437 456.73998644 84.5625 460.9375 C77.59230165 465.07317969 70.58498988 469.14121067 63.5625 473.1875 C62.45527588 473.82550537 61.34805176 474.46351074 60.20727539 475.12084961 C57.93662932 476.42889477 55.66587642 477.73675448 53.39501953 479.04443359 C49.00374161 481.57385515 44.61405409 484.10602229 40.2253418 486.63989258 C38.08358606 487.87507818 35.94052762 489.10800781 33.79614258 490.33862305 C28.71042696 493.26056557 23.64031514 496.20301733 18.61242676 499.2232666 C16.23637058 500.64877251 13.85313376 502.06201836 11.46923828 503.47436523 C9.78875017 504.47688307 8.11882645 505.49704276 6.44921875 506.51757812 C5.42957031 507.12021484 4.40992188 507.72285156 3.359375 508.34375 C2.46702148 508.88193359 1.57466797 509.42011719 0.65527344 509.97460938 C-2.73502253 511.28384467 -4.52300494 510.97847078 -8 510 C-10.65527344 508.74755859 -10.65527344 508.74755859 -13.359375 507.1484375 C-14.88884766 506.25415039 -14.88884766 506.25415039 -16.44921875 505.34179688 C-17.53847656 504.69275391 -18.62773437 504.04371094 -19.75 503.375 C-20.90697352 502.69497822 -22.06453713 502.01595953 -23.22265625 501.33789062 C-25.62665148 499.92932676 -28.02805773 498.51649359 -30.42773438 497.10058594 C-35.9283488 493.85983022 -41.46603409 490.68333677 -47 487.5 C-49.16684034 486.25030108 -51.3335065 485.00030011 -53.5 483.75 C-54.5725 483.13125 -55.645 482.5125 -56.75 481.875 C-74.625 471.5625 -74.625 471.5625 -92.5 461.25 C-93.57266113 460.63116943 -94.64532227 460.01233887 -95.75048828 459.37475586 C-97.91557071 458.12564482 -100.08060982 456.87645871 -102.24560547 455.62719727 C-107.68615706 452.48797691 -113.12747216 449.35009437 -118.5703125 446.21484375 C-129.02206199 440.19252671 -139.46299548 434.15330663 -149.875 428.0625 C-159.14032389 422.64352182 -168.44887288 417.30324113 -177.77435303 411.98883057 C-203.72756413 397.19489999 -203.72756413 397.19489999 -211.06074142 392.62763309 C-213.94126298 390.90547043 -213.94126298 390.90547043 -217.10811234 390.0184164 C-221.07046917 388.52305193 -223.19533859 387.2111396 -226 384 C-228.4065628 376.24945346 -227.51057373 367.5288711 -227.36230469 359.52172852 C-227.3589193 356.97885804 -227.36082078 354.43597583 -227.36761475 351.89311218 C-227.37034618 346.42097277 -227.33635448 340.95102926 -227.26876068 335.47934151 C-227.17110247 327.56879096 -227.13997083 319.6590699 -227.12490478 311.7479819 C-227.09866115 298.91232703 -227.01885885 286.07758891 -226.90527344 273.24243164 C-226.79507183 260.77665789 -226.71015785 248.31113342 -226.65917969 235.8449707 C-226.65602701 235.07616491 -226.65287432 234.30735911 -226.64962611 233.51525617 C-226.6339653 229.6582618 -226.61880089 225.80126566 -226.60388327 221.94426835 C-226.47954494 189.96217935 -226.26824439 157.98121709 -226 126 C-89.5 47.25 -89.5 47.25 -86.24951172 45.37475586 C-84.08442929 44.12564482 -81.91939018 42.87645871 -79.75439453 41.62719727 C-74.31384294 38.48797691 -68.87252784 35.35009437 -63.4296875 32.21484375 C-53.72431653 26.62263959 -44.02327936 21.02380694 -34.3515625 15.37353516 C-32.3137202 14.18361748 -30.27469175 12.99572841 -28.234375 11.81005859 C-23.99946748 9.3480192 -19.77571573 6.87642846 -15.6015625 4.3125 C-14.63814941 3.73133423 -14.63814941 3.73133423 -13.65527344 3.13842773 C-12.03147051 2.15706466 -10.41751579 1.15945317 -8.8046875 0.16015625 C-5.29797132 -1.29039348 -3.66338106 -0.87041391 0 0 Z " fill="#000202" transform="translate(260,1)"/>
<path d="M0 0 C4.33751396 1.44583799 5.29362672 4.71842799 7.3125 8.5625 C8.20844659 10.2213998 9.10702299 11.87888118 10.0078125 13.53515625 C10.49024414 14.42348145 10.97267578 15.31180664 11.46972656 16.22705078 C14.12291075 21.03478307 16.90757042 25.76478848 19.6875 30.5 C24.63252789 38.94218725 29.55228965 47.39804181 34.4375 55.875 C35.05971436 56.95458984 35.68192871 58.03417969 36.32299805 59.14648438 C37.58511517 61.3368252 38.84707785 63.52725502 40.10888672 65.71777344 C43.23680148 71.14659942 46.36858448 76.57319281 49.5 82 C50.75001879 84.16665583 52.00001878 86.3333225 53.25 88.5 C54.178125 90.10875 54.178125 90.10875 55.125 91.75 C77 129.66666667 98.875 167.58333333 120.75 205.5 C121.36987793 206.57435303 121.98975586 207.64870605 122.62841797 208.75561523 C123.86738234 210.9033582 125.10599424 213.05130455 126.34423828 215.19946289 C129.28014105 220.29179437 132.21969755 225.38191695 135.17169189 230.4649353 C136.57068053 232.87434008 137.96767029 235.2849009 139.36450195 237.69555664 C140.35498071 239.40298982 141.3483594 241.10873972 142.34179688 242.81445312 C142.93798828 243.84376953 143.53417969 244.87308594 144.1484375 245.93359375 C144.67614746 246.84165771 145.20385742 247.74972168 145.74755859 248.68530273 C147 251 147 251 148 254 C50.98 254 -46.04 254 -146 254 C-144.50697948 250.26744871 -143.04854911 247.17037559 -141.05078125 243.73828125 C-140.4578125 242.71541016 -139.86484375 241.69253906 -139.25390625 240.63867188 C-138.61324219 239.54103516 -137.97257812 238.44339844 -137.3125 237.3125 C-136.6376662 236.15059652 -135.96319344 234.98848329 -135.2890625 233.82617188 C-133.88892911 231.4127596 -132.48724981 229.0002554 -131.08447266 226.58837891 C-127.87508732 221.06732929 -124.68874937 215.53298399 -121.5 210 C-120.2501082 207.83327091 -119.00010785 205.66660444 -117.75 203.5 C-117.13125 202.4275 -116.5125 201.355 -115.875 200.25 C-89 153.66666667 -62.125 107.08333333 -35.25 60.5 C-34.3211499 58.88992065 -34.3211499 58.88992065 -33.37353516 57.24731445 C-32.12858718 55.08950197 -30.8834711 52.93178647 -29.63818359 50.77416992 C-26.43447349 45.22283408 -23.2340637 39.66963459 -20.0390625 34.11328125 C-13.46078718 22.67967041 -6.86060273 11.26700611 0 0 Z " fill="#75E5F8" transform="translate(255,96)"/>
<path d="M0 0 C0 17.16 0 34.32 0 52 C-14.60569629 56.4940604 -14.60569629 56.4940604 -20.0234375 57.7109375 C-21.21678711 57.98301025 -22.41013672 58.25508301 -23.63964844 58.53540039 C-25.48864746 58.9510022 -25.48864746 58.9510022 -27.375 59.375 C-30.03483003 59.98146798 -32.69346277 60.59302659 -35.3515625 61.20703125 C-36.00753418 61.3585112 -36.66350586 61.50999115 -37.33935547 61.6660614 C-43.17292039 63.02246563 -48.96401936 64.51752279 -54.75 66.0625 C-67.09391252 69.3550975 -79.53824121 72.19192828 -92 75 C-91.855625 76.19625 -91.71125 77.3925 -91.5625 78.625 C-91.48128906 79.29789062 -91.40007812 79.97078125 -91.31640625 80.6640625 C-90.9385293 83.45382071 -90.47310734 86.22496701 -90 89 C-88.93193115 88.72905518 -88.93193115 88.72905518 -87.84228516 88.45263672 C-73.75664879 84.88673837 -59.66216248 81.42119089 -45.48999023 78.21386719 C-37.03671885 76.28354659 -28.65316724 74.13056007 -20.29370117 71.82788086 C-19.40658447 71.5881958 -18.51946777 71.34851074 -17.60546875 71.1015625 C-16.44760864 70.78179443 -16.44760864 70.78179443 -15.26635742 70.45556641 C-12.79333268 69.95845726 -10.516021 69.92169541 -8 70 C-11.82395911 77.86407742 -15.9119277 85.48215663 -20.375 93 C-21.61313001 95.1034897 -22.85006006 97.20768605 -24.0859375 99.3125 C-24.7262793 100.40304688 -25.36662109 101.49359375 -26.02636719 102.6171875 C-29.39292013 108.38746924 -32.6948233 114.19444779 -36 120 C-41.53886005 129.72180742 -47.13375712 139.40896202 -52.78344727 149.06689453 C-58.93766742 159.59084625 -65.02369996 170.15380137 -71.10888672 180.71777344 C-74.23680148 186.14659942 -77.36858448 191.57319281 -80.5 197 C-81.75001879 199.16665583 -83.00001878 201.3333225 -84.25 203.5 C-105.5 240.33333333 -126.75 277.16666667 -148 314 C-148.66 314 -149.32 314 -150 314 C-153.54532175 299.93805318 -157.01197407 285.86149982 -160.34814453 271.74853516 C-161.53442967 266.74658831 -162.73654327 261.74844073 -163.9375 256.75 C-164.18886719 255.70336182 -164.44023437 254.65672363 -164.69921875 253.57836914 C-165.21071394 251.44871586 -165.72227018 249.31907725 -166.23388672 247.18945312 C-167.49005393 241.95982648 -168.7449715 236.72990001 -170 231.5 C-170.49999384 229.41666519 -170.99999385 227.33333186 -171.5 225.25 C-174.5 212.75 -174.5 212.75 -175.24975586 209.62597656 C-175.75054505 207.53938211 -176.25135891 205.45279359 -176.75219727 203.36621094 C-177.99032354 198.20782058 -179.22804262 193.04933325 -180.46484375 187.890625 C-180.9557222 185.84374833 -181.44660765 183.79687334 -181.9375 181.75 C-182.18169678 180.73123779 -182.42589355 179.71247559 -182.67749023 178.6628418 C-184.03006836 173.02468505 -185.38976215 167.38833003 -186.7578125 161.75390625 C-189.54058634 150.28625787 -192.30836762 138.81651055 -194.9375 127.3125 C-195.14898682 126.39186768 -195.36047363 125.47123535 -195.57836914 124.52270508 C-195.76778076 123.68634521 -195.95719238 122.84998535 -196.15234375 121.98828125 C-196.31726318 121.26165283 -196.48218262 120.53502441 -196.65209961 119.78637695 C-197 118 -197 118 -197 116 C-187.61166614 112.92504648 -178.16647019 110.52291725 -168.54724121 108.30813599 C-153.96263357 104.94753163 -139.44219612 101.39071374 -124.97314453 97.56347656 C-118.34795647 95.81995808 -111.7397733 94.23498138 -105 93 C-105.2165625 92.24074219 -105.433125 91.48148437 -105.65625 90.69921875 C-105.9346875 89.70535156 -106.213125 88.71148437 -106.5 87.6875 C-106.7784375 86.70136719 -107.056875 85.71523437 -107.34375 84.69921875 C-108 82 -108 82 -108 79 C-109.60270752 79.39324463 -109.60270752 79.39324463 -111.23779297 79.79443359 C-115.24427067 80.77687516 -119.25142991 81.75651224 -123.25878906 82.73535156 C-124.98520999 83.15745149 -126.71145112 83.58028755 -128.4375 84.00390625 C-146.08633733 88.334408 -146.08633733 88.334408 -155 90 C-152.58310212 87.30592573 -149.99835145 85.7329107 -146.8359375 83.99609375 C-145.8054126 83.42576416 -144.7748877 82.85543457 -143.71313477 82.26782227 C-142.61155029 81.66381592 -141.50996582 81.05980957 -140.375 80.4375 C-138.07865933 79.16544748 -135.78308685 77.89200722 -133.48828125 76.6171875 C-132.3688916 75.99553711 -131.24950195 75.37388672 -130.09619141 74.73339844 C-126.21917228 72.56285469 -122.38204748 70.3322754 -118.5625 68.0625 C-111.59251545 63.92646521 -104.58498433 59.85878613 -97.5625 55.8125 C-96.45527588 55.17449463 -95.34805176 54.53648926 -94.20727539 53.87915039 C-91.93662932 52.57110523 -89.66587642 51.26324552 -87.39501953 49.95556641 C-81.9283002 46.80667946 -76.46425113 43.65316736 -71 40.5 C-68.83334689 39.2499765 -66.66668021 37.99997653 -64.5 36.75 C-63.4275 36.13125 -62.355 35.5125 -61.25 34.875 C-51.5 29.25 -51.5 29.25 -48.24487305 27.37207031 C-46.09526366 26.13189239 -43.94568642 24.89165873 -41.79614258 23.65136719 C-36.72690788 20.7264977 -31.65735064 17.80219167 -26.5866394 14.87988281 C-24.19573403 13.50193062 -21.80501328 12.12365828 -19.41430664 10.74536133 C-17.73016037 9.77459018 -16.04574769 8.80428126 -14.36132812 7.83398438 C-13.33845703 7.24423828 -12.31558594 6.65449219 -11.26171875 6.046875 C-10.36412842 5.52963867 -9.46653809 5.01240234 -8.54174805 4.47949219 C-6.76064511 3.44275376 -4.99217364 2.38415059 -3.23364258 1.30957031 C-1 0 -1 0 0 0 Z " fill="#00CFF4" transform="translate(248,22)"/>
<path d="M0 0 C7.24477467 0.67641631 14.09116998 2.4301216 21.125 4.25 C29.7484583 6.44740151 38.37272 8.58120307 47.0625 10.5 C56.43113384 12.57806394 65.70208584 14.97419032 74.98168945 17.41625977 C81.87951828 19.22112066 88.78736159 20.90286168 95.75 22.4375 C104.74184758 24.42246272 113.65359077 26.67665867 122.5625 29 C131.25283951 31.26606836 139.94298644 33.51292335 148.6875 35.5625 C157.20400805 37.55928403 165.6990502 39.63741217 174.1875 41.75 C175.4252417 42.05623291 176.6629834 42.36246582 177.93823242 42.67797852 C179.6607019 43.10808228 179.6607019 43.10808228 181.41796875 43.546875 C182.44688232 43.80307617 183.4757959 44.05927734 184.53588867 44.32324219 C187 45 187 45 189 46 C185.35291629 65.20082304 180.86711522 84.17234081 175.82226562 103.05249023 C173.60626841 111.38637433 171.64160284 119.77697285 169.66796875 128.17089844 C168.48040541 133.20068061 167.27052137 138.2250995 166.0625 143.25 C165.55336589 145.36978698 165.04425142 147.48957867 164.53515625 149.609375 C164.28137207 150.66576172 164.02758789 151.72214844 163.76611328 152.81054688 C163.00909027 155.96215572 162.25249593 159.1138671 161.49609375 162.265625 C161.24915771 163.29453857 161.00222168 164.32345215 160.74780273 165.38354492 C160.24849356 167.46440734 159.74930774 169.54529937 159.25024414 171.6262207 C158.00361804 176.82326821 156.75448222 182.01968657 155.5 187.21484375 C152.15349222 201.08843111 148.90291518 214.98208444 145.71337891 228.89257812 C144.48051072 234.26285407 143.2400412 239.63137658 142 245 C139.34434213 242.60030318 137.72001447 240.03555811 135.953125 236.93359375 C135.36337891 235.90427734 134.77363281 234.87496094 134.16601562 233.81445312 C133.53373047 232.70005859 132.90144531 231.58566406 132.25 230.4375 C131.58058653 229.26598539 130.91065574 228.09476624 130.24023438 226.92382812 C128.84760003 224.49056166 127.45720253 222.05603768 126.06835938 219.62060547 C122.89970234 214.06842407 119.69820559 208.53519338 116.5 203 C115.24984475 200.83342291 113.99984527 198.66675593 112.75 196.5 C112.13125 195.4275 111.5125 194.355 110.875 193.25 C90.25 157.5 90.25 157.5 88.37475586 154.24951172 C87.12564482 152.08442929 85.87645871 149.91939018 84.62719727 147.75439453 C81.48797691 142.31384294 78.35009437 136.87252784 75.21484375 131.4296875 C69.19252671 120.97793801 63.15330663 110.53700452 57.0625 100.125 C51.64078822 90.85500223 46.29795085 81.54168248 40.98077393 72.21154785 C36.34224621 64.07429741 31.66596752 55.9604312 26.9375 47.875 C21.92485001 39.29896741 16.91833467 30.71954894 11.9375 22.125 C11.3180249 21.0613623 10.6985498 19.99772461 10.06030273 18.90185547 C6.47479151 12.7049059 3.11161207 6.44848304 0 0 Z " fill="#00CFF4" transform="translate(272,92)"/>
<path d="M0 0 C92.4 0 184.8 0 280 0 C275.53825503 5.57718121 275.53825503 5.57718121 272.5625 8.0625 C268.8799365 11.21215079 265.30282449 14.45603912 261.75 17.75 C261.19473633 18.2641748 260.63947266 18.77834961 260.06738281 19.30810547 C258.93526095 20.35647508 257.80326251 21.404978 256.67138672 22.45361328 C250.50688635 28.15708178 244.31492125 33.83048997 238.0625 39.4375 C233.60713196 43.43517373 229.20916481 47.49200885 224.81665039 51.55834961 C220.77550116 55.29526882 216.69289404 58.98299106 212.59375 62.65625 C209.54108348 65.4146836 206.51915705 68.2050031 203.5 71 C198.8995846 75.25885323 194.2626635 79.47241842 189.59375 83.65625 C186.54108319 86.41468387 183.51917344 89.20502044 180.5 92 C175.87515044 96.28102453 171.21614417 100.51983193 166.5234375 104.7265625 C163.18219971 107.73677982 159.86961951 110.77782268 156.55737305 113.81982422 C151.38874394 118.56548173 146.19619663 123.28455385 141 128 C137.85387907 126.59837957 135.65010321 124.93203803 133.171875 122.55078125 C132.45386719 121.86693359 131.73585937 121.18308594 130.99609375 120.47851562 C129.88427734 119.40633789 129.88427734 119.40633789 128.75 118.3125 C123.90101119 113.66591125 119.01970177 109.100485 113.94238281 104.70385742 C110.72282852 101.87966569 107.61612726 98.93722643 104.5 96 C98.82593007 90.66621583 98.82593007 90.66621583 93 85.5 C88.3642504 81.51488192 83.94634111 77.29433544 79.48828125 73.11328125 C76.36684678 70.19121984 73.24295072 67.28779975 70 64.5 C65.3642504 60.51488192 60.94634111 56.29433544 56.48828125 52.11328125 C53.36684678 49.19121984 50.24295072 46.28779975 47 43.5 C43.06042354 40.11334656 39.2886511 36.55318261 35.5 33 C31.0931927 28.8676132 26.67092855 24.77937619 22.08984375 20.83984375 C18.57615309 17.74648244 15.16438057 14.54204026 11.73510742 11.35571289 C8.77064051 8.60876543 5.78072118 5.91533246 2.6875 3.3125 C1.800625 2.549375 0.91375 1.78625 0 1 C0 0.67 0 0.34 0 0 Z " fill="#00CFF5" transform="translate(116,365)"/>
<path d="M0 0 C0 17.16 0 34.32 0 52 C-14.60569629 56.4940604 -14.60569629 56.4940604 -20.0234375 57.7109375 C-21.21678711 57.98301025 -22.41013672 58.25508301 -23.63964844 58.53540039 C-25.48864746 58.9510022 -25.48864746 58.9510022 -27.375 59.375 C-30.03483003 59.98146798 -32.69346277 60.59302659 -35.3515625 61.20703125 C-36.00753418 61.3585112 -36.66350586 61.50999115 -37.33935547 61.6660614 C-43.17292039 63.02246563 -48.96401936 64.51752279 -54.75 66.0625 C-67.09391252 69.3550975 -79.53824121 72.19192828 -92 75 C-92 77.31 -92 79.62 -92 82 C-96.8043208 84.4021604 -101.73103895 84.61122229 -107 85 C-107.33 83.02 -107.66 81.04 -108 79 C-109.06847168 79.26216309 -110.13694336 79.52432617 -111.23779297 79.79443359 C-115.24427067 80.77687516 -119.25142991 81.75651224 -123.25878906 82.73535156 C-124.98520999 83.15745149 -126.71145112 83.58028755 -128.4375 84.00390625 C-146.08633733 88.334408 -146.08633733 88.334408 -155 90 C-152.58310212 87.30592573 -149.99835145 85.7329107 -146.8359375 83.99609375 C-145.8054126 83.42576416 -144.7748877 82.85543457 -143.71313477 82.26782227 C-142.61155029 81.66381592 -141.50996582 81.05980957 -140.375 80.4375 C-138.07865933 79.16544748 -135.78308685 77.89200722 -133.48828125 76.6171875 C-132.3688916 75.99553711 -131.24950195 75.37388672 -130.09619141 74.73339844 C-126.21917228 72.56285469 -122.38204748 70.3322754 -118.5625 68.0625 C-111.59251545 63.92646521 -104.58498433 59.85878613 -97.5625 55.8125 C-96.45527588 55.17449463 -95.34805176 54.53648926 -94.20727539 53.87915039 C-91.93662932 52.57110523 -89.66587642 51.26324552 -87.39501953 49.95556641 C-81.9283002 46.80667946 -76.46425113 43.65316736 -71 40.5 C-68.83334689 39.2499765 -66.66668021 37.99997653 -64.5 36.75 C-63.4275 36.13125 -62.355 35.5125 -61.25 34.875 C-51.5 29.25 -51.5 29.25 -48.24487305 27.37207031 C-46.09526366 26.13189239 -43.94568642 24.89165873 -41.79614258 23.65136719 C-36.72690788 20.7264977 -31.65735064 17.80219167 -26.5866394 14.87988281 C-24.19573403 13.50193062 -21.80501328 12.12365828 -19.41430664 10.74536133 C-17.73016037 9.77459018 -16.04574769 8.80428126 -14.36132812 7.83398438 C-13.33845703 7.24423828 -12.31558594 6.65449219 -11.26171875 6.046875 C-10.36412842 5.52963867 -9.46653809 5.01240234 -8.54174805 4.47949219 C-6.76064511 3.44275376 -4.99217364 2.38415059 -3.23364258 1.30957031 C-1 0 -1 0 0 0 Z " fill="#74E4F8" transform="translate(248,22)"/>
<path d="M0 0 C18.12852863 9.87453988 36.10016865 19.9991624 53.91015625 30.4375 C60.21570419 34.1321331 66.54294436 37.78852681 72.875 41.4375 C74.49523071 42.37130493 74.49523071 42.37130493 76.14819336 43.32397461 C78.33796334 44.58576826 80.52782355 45.84740534 82.71777344 47.10888672 C89.2235961 50.8573323 95.72644083 54.61094181 102.22973633 58.36376953 C107.75737281 61.55328795 113.28599381 64.74107821 118.81640625 67.92578125 C130.91186046 74.89322882 142.98785531 81.88974723 155 89 C150.98122363 90.33959212 148.04171563 89.19327293 144.08984375 88.12109375 C143.2989888 87.91398773 142.50813385 87.70688171 141.6933136 87.49349976 C139.9923416 87.04744687 138.29231108 86.59779147 136.59313965 86.14492798 C132.13304735 84.95681721 127.66603453 83.7953433 123.19921875 82.6328125 C122.31364288 82.40175308 121.42806702 82.17069366 120.51565552 81.93263245 C113.45374821 80.09780486 106.37012279 78.40814673 99.25 76.8125 C89.38181231 74.59397912 79.60178817 72.11047525 69.82128906 69.53442383 C62.03750463 67.49594795 54.22961796 65.65382091 46.37304688 63.92041016 C37.64426877 61.97128103 29.00157741 59.71009721 20.359375 57.41015625 C14.54419566 55.87248863 8.75845182 54.48360176 2.83691406 53.41870117 C1 53 1 53 0 52 C-0.09340434 50.37325222 -0.11745171 48.74245949 -0.11352539 47.11303711 C-0.11344986 46.07203354 -0.11337433 45.03102997 -0.11329651 43.95848083 C-0.10813522 42.8262056 -0.10297394 41.69393036 -0.09765625 40.52734375 C-0.0962413 39.37456436 -0.09482635 38.22178497 -0.09336853 37.03407288 C-0.08775005 33.33518936 -0.07519442 29.63636536 -0.0625 25.9375 C-0.05748738 23.43684983 -0.05292406 20.93619871 -0.04882812 18.43554688 C-0.03777462 12.29034412 -0.02101852 6.14517631 0 0 Z " fill="#74E4F8" transform="translate(264,22)"/>
<path d="M0 0 C6.14579003 3.5766483 9.7543177 8.2709621 12.4375 14.875 C12.89887494 18.30710992 12.92916909 21.71217351 12.94140625 25.171875 C12.95139145 26.16068665 12.96137665 27.14949829 12.97166443 28.16827393 C12.98681434 30.25602044 12.99389119 32.3438392 12.9934082 34.43164062 C12.99995149 37.60150063 13.05441665 40.76819604 13.11132812 43.9375 C13.26845434 62.48160209 13.26845434 62.48160209 8.05249023 69.23876953 C6.04097196 71.27674315 4.17512566 73.00068173 1.6875 74.4375 C0.92953125 74.89253906 0.1715625 75.34757812 -0.609375 75.81640625 C-6.54943517 79.03591886 -12.97479865 78.54627426 -19.5625 77.875 C-28.14773638 74.94999099 -32.63917699 68.72164603 -36.5625 60.875 C-36.67198012 59.43703624 -36.72150142 57.99425915 -36.73950195 56.55224609 C-36.75233719 55.6572641 -36.76517242 54.7622821 -36.77839661 53.84017944 C-36.78947701 52.38401718 -36.78947701 52.38401718 -36.80078125 50.8984375 C-36.808853 49.89922272 -36.81692474 48.90000793 -36.82524109 47.87051392 C-36.83909093 45.75044493 -36.84980904 43.63035357 -36.85766602 41.51025391 C-36.8748206 38.28374182 -36.91869219 35.05826988 -36.96289062 31.83203125 C-36.9730227 29.77084086 -36.98153719 27.70964176 -36.98828125 25.6484375 C-37.00578934 24.68980804 -37.02329742 23.73117859 -37.04133606 22.74349976 C-37.01805297 15.47028084 -35.43306831 10.15075787 -30.59765625 4.6328125 C-29.94667969 4.09398437 -29.29570312 3.55515625 -28.625 3 C-27.97660156 2.44570312 -27.32820313 1.89140625 -26.66015625 1.3203125 C-18.97487348 -3.97494751 -8.31405994 -3.88239136 0 0 Z " fill="#020505" transform="translate(299.5625,218.125)"/>
<path d="M0 0 C0.33 0 0.66 0 1 0 C1 56.43 1 112.86 1 171 C-3.58414912 170.08317018 -7.45930853 168.67722421 -11.70703125 166.83984375 C-12.79512337 166.37584923 -12.79512337 166.37584923 -13.90519714 165.90248108 C-16.20957108 164.91861847 -18.51104444 163.92816731 -20.8125 162.9375 C-22.37937015 162.26714053 -23.94642552 161.59721384 -25.51367188 160.92773438 C-29.34461122 159.2901605 -33.17296387 157.64667391 -37 156 C-36.44336289 152.53472492 -35.84155799 149.11136757 -35.01953125 145.69921875 C-34.82818604 144.90032227 -34.63684082 144.10142578 -34.43969727 143.27832031 C-34.23272217 142.42334961 -34.02574707 141.56837891 -33.8125 140.6875 C-33.59327881 139.77452148 -33.37405762 138.86154297 -33.14819336 137.92089844 C-32.67714023 135.95991434 -32.2051884 133.99914595 -31.73242188 132.03857422 C-31.00162186 129.00672856 -30.27376886 125.97419061 -29.546875 122.94140625 C-28.28817873 117.6903804 -27.02745636 112.43984374 -25.76611328 107.18945312 C-24.50994607 101.95982648 -23.2550285 96.72990001 -22 91.5 C-21.50000616 89.41666519 -21.00000615 87.33333186 -20.5 85.25 C-20.2525 84.21875 -20.005 83.1875 -19.75 82.125 C-17.5 72.75 -17.5 72.75 -16.75 69.62548828 C-16.24970456 67.54059822 -15.74970489 65.45563715 -15.25 63.37060547 C-14.00692698 58.1854695 -12.75886091 53.00163974 -11.5 47.8203125 C-8.49248697 35.41199988 -5.62156237 22.98244459 -2.91601562 10.50439453 C-2.56120117 8.87993408 -2.56120117 8.87993408 -2.19921875 7.22265625 C-1.99127686 6.26109619 -1.78333496 5.29953613 -1.5690918 4.30883789 C-1 2 -1 2 0 0 Z " fill="#73E1F4" transform="translate(462,197)"/>
<path d="M0 0 C1.91714471 2.87571706 2.47645306 4.42681197 3.19140625 7.71484375 C3.40933838 8.69300049 3.62727051 9.67115723 3.85180664 10.67895508 C4.08633545 11.7542749 4.32086426 12.82959473 4.5625 13.9375 C7.06522136 25.10697899 9.76433872 36.2141002 12.5625 47.3125 C13.3417995 50.40869002 14.12040501 53.50505386 14.8984375 56.6015625 C15.0838913 57.33959106 15.26934509 58.07761963 15.4604187 58.8380127 C17.51333359 67.02288053 19.4652691 75.23052281 21.39648438 83.44482422 C22.56289819 88.38320894 23.75162839 93.31625869 24.9375 98.25 C25.44404252 100.3580652 25.95055279 102.46613816 26.45703125 104.57421875 C26.71049316 105.62915527 26.96395508 106.6840918 27.22509766 107.77099609 C28.00982478 111.04093966 28.79231429 114.31141166 29.57421875 117.58203125 C30.09111341 119.74219526 30.60804001 121.90235162 31.125 124.0625 C31.3732251 125.10140381 31.6214502 126.14030762 31.87719727 127.21069336 C32.97932919 131.80921844 34.0933452 136.40317998 35.265625 140.984375 C35.45495605 141.72550537 35.64428711 142.46663574 35.83935547 143.23022461 C36.33340937 145.15081974 36.83435801 147.06963774 37.3359375 148.98828125 C38 152 38 152 38 156 C34.19860093 157.66133223 30.39398651 159.31501373 26.58642578 160.9621582 C25.2958382 161.52166985 24.00609802 162.08314091 22.71728516 162.64672852 C20.84766195 163.46387153 18.97494192 164.27354286 17.1015625 165.08203125 C15.42054443 165.81256714 15.42054443 165.81256714 13.70556641 166.55786133 C9.23006662 168.29964399 4.59995065 169.6200148 0 171 C0 114.57 0 58.14 0 0 Z " fill="#73E1F5" transform="translate(49,197)"/>
<path d="M0 0 C7.73509365 2.42393844 15.11637146 5.49394736 22.5625 8.6875 C23.76197266 9.19861328 24.96144531 9.70972656 26.19726562 10.23632812 C29.13286285 11.48775802 32.06704935 12.74238293 35 14 C35 14.66 35 15.32 35 16 C31.42548451 18.0631792 27.85085438 20.12615964 24.27612305 22.18896484 C23.06287623 22.88910701 21.84965944 23.58930122 20.63647461 24.28955078 C14.43094464 27.87133465 8.22550964 31.4530136 2 35 C2.350625 35.7425 2.70125 36.485 3.0625 37.25 C4.09243176 40.27113316 4.23857452 41.12473771 3 44 C0.71484375 45.703125 0.71484375 45.703125 -2.0625 47.25 C-3.44115234 48.03117187 -3.44115234 48.03117187 -4.84765625 48.828125 C-5.55792969 49.21484375 -6.26820313 49.6015625 -7 50 C-6.01 51.98 -5.02 53.96 -4 56 C-5.39176632 56.96423026 -6.7886223 57.92111602 -8.1875 58.875 C-8.96480469 59.40867187 -9.74210937 59.94234375 -10.54296875 60.4921875 C-12.9676609 61.98015439 -15.3333499 63.02428078 -18 64 C-21 60.25 -21 60.25 -21 58 C-22.13888672 58.6496875 -22.13888672 58.6496875 -23.30078125 59.3125 C-24.29464844 59.869375 -25.28851563 60.42625 -26.3125 61 C-27.29863281 61.556875 -28.28476562 62.11375 -29.30078125 62.6875 C-32 64 -32 64 -35 64 C-37.1875 61.5 -37.1875 61.5 -39 59 C-49.0329553 64.49785682 -58.99193958 70.11160358 -68.875 75.875 C-69.88062988 76.46112061 -70.88625977 77.04724121 -71.92236328 77.65112305 C-76.9444942 80.58962103 -81.9423749 83.56168512 -86.90625 86.59765625 C-87.82937988 87.16049316 -88.75250977 87.72333008 -89.70361328 88.30322266 C-91.45127993 89.37239471 -93.19465111 90.44862811 -94.93310547 91.53271484 C-95.70541504 92.00531738 -96.47772461 92.47791992 -97.2734375 92.96484375 C-97.94810059 93.3837085 -98.62276367 93.80257324 -99.31787109 94.23413086 C-99.87297363 94.48686768 -100.42807617 94.73960449 -101 95 C-101.66 94.67 -102.32 94.34 -103 94 C-99.27668928 90.50285132 -95.54846469 87.01097312 -91.8125 83.52734375 C-90.86310547 82.64163696 -90.86310547 82.64163696 -89.89453125 81.73803711 C-87.37931012 79.43058102 -84.80694681 77.19369111 -82.21875 74.96875 C-78.92043532 72.04207641 -75.71620168 69.01636002 -72.5 66 C-68.13708242 61.90817633 -63.75505357 57.86837938 -59.21875 53.96875 C-55.92043437 51.04207557 -52.71622658 48.01633486 -49.5 45 C-45.08643683 40.86127803 -40.65491416 36.76981783 -36.0703125 32.8203125 C-31.52345879 28.82251282 -27.11697387 24.66526544 -22.67578125 20.55078125 C-15.18779706 13.62134133 -7.65429876 6.74583401 0 0 Z " fill="#74E4F7" transform="translate(417,366)"/>
<path d="M0 0 C2.95997141 1.95289631 5.46302779 4.38085017 8.02441406 6.81567383 C9.19319811 7.91124546 10.36247309 9.00629357 11.53222656 10.10083008 C12.10618164 10.63981934 12.68013672 11.17880859 13.27148438 11.73413086 C15.45405472 13.77071644 17.67334948 15.76431285 19.89941406 17.75317383 C23.76603973 21.21807216 27.58955192 24.72621951 31.39941406 28.25317383 C36.02561213 32.53544661 40.68620081 36.77525242 45.37988281 40.98364258 C50.76979073 45.83873792 56.09893211 50.76096925 61.44042969 55.66918945 C66.5525178 60.36555503 71.66826562 65.05642522 76.83691406 69.69067383 C80.78997311 73.23567517 84.69341556 76.83067172 88.58691406 80.44067383 C92.94433188 84.47924073 97.34284665 88.43837321 101.89941406 92.25317383 C100.90941406 92.74817383 100.90941406 92.74817383 99.89941406 93.25317383 C97.69824219 92.2277832 97.69824219 92.2277832 94.93066406 90.59692383 C93.898125 89.99428711 92.86558594 89.39165039 91.80175781 88.77075195 C90.67898437 88.10495117 89.55621094 87.43915039 88.39941406 86.75317383 C87.22412973 86.06417446 86.04834037 85.37603588 84.87207031 84.6887207 C82.42477765 83.25781989 79.9797176 81.82320933 77.53613281 80.38598633 C72.01070052 77.14021634 66.4536448 73.94931638 60.89941406 70.75317383 C58.73259539 69.50343735 56.56592926 68.25343635 54.39941406 67.00317383 C53.32691406 66.38442383 52.25441406 65.76567383 51.14941406 65.12817383 C39.2327474 58.25317383 27.31608073 51.37817383 15.39941406 44.50317383 C14.32522217 43.88345703 13.25103027 43.26374023 12.14428711 42.62524414 C9.99467772 41.38506621 7.84510048 40.14483256 5.69555664 38.90454102 C0.62632194 35.97967153 -4.4432353 33.0553655 -9.51394653 30.13305664 C-11.90485191 28.75510445 -14.29557265 27.3768321 -16.6862793 25.99853516 C-18.37042557 25.02776401 -20.05483825 24.05745508 -21.73925781 23.0871582 C-22.76212891 22.49741211 -23.785 21.90766602 -24.83886719 21.30004883 C-25.73645752 20.7828125 -26.63404785 20.26557617 -27.55883789 19.73266602 C-28.81700317 19.00031738 -28.81700317 19.00031738 -30.10058594 18.25317383 C-31.03410889 17.73658203 -31.96763184 17.21999023 -32.92944336 16.68774414 C-33.64592041 16.21433594 -34.36239746 15.74092773 -35.10058594 15.25317383 C-35.10058594 14.59317383 -35.10058594 13.93317383 -35.10058594 13.25317383 C-31.47668356 11.66732007 -27.85126343 10.0849645 -24.22558594 8.50317383 C-23.21238281 8.05973633 -22.19917969 7.61629883 -21.15527344 7.15942383 C-19.12848087 6.27595015 -17.0988498 5.39895922 -15.06640625 4.52856445 C-13.12018011 3.69162954 -11.18158344 2.83667698 -9.25195312 1.9621582 C-8.37442383 1.57866211 -7.49689453 1.19516602 -6.59277344 0.80004883 C-5.82046387 0.45296875 -5.0481543 0.10588867 -4.25244141 -0.25170898 C-2.10058594 -0.74682617 -2.10058594 -0.74682617 0 0 Z " fill="#73E3F6" transform="translate(95.1005859375,366.746826171875)"/>
<path d="M0 0 C5.4873519 3.34623165 10.46413829 8.07918284 12.4375 14.3125 C13.83577455 24.60236655 12.38600573 32.76231236 6.4375 41.3125 C4.54340066 43.50506348 2.58482542 45.48447357 0.453125 47.4453125 C-4.70802061 52.22637374 -9.07165095 57.92348115 -13.5625 63.3125 C-4.9825 63.3125 3.5975 63.3125 12.4375 63.3125 C12.4375 68.5925 12.4375 73.8725 12.4375 79.3125 C-2.4125 79.3125 -17.2625 79.3125 -32.5625 79.3125 C-32.5625 58.71340928 -32.5625 58.71340928 -25.69897461 51.81518555 C-25.18858643 51.3850415 -24.67819824 50.95489746 -24.15234375 50.51171875 C-20.18002483 47.02809742 -16.600103 43.23718672 -13 39.375 C-12.40493652 38.75979492 -11.80987305 38.14458984 -11.19677734 37.51074219 C-6.76505095 32.8512584 -3.11692916 28.36451561 -3.1875 21.625 C-3.17976563 20.87863281 -3.17203125 20.13226563 -3.1640625 19.36328125 C-3.67437965 16.73664886 -4.39999391 15.86815583 -6.5625 14.3125 C-9.63115989 13.63434312 -12.4795054 13.73164594 -15.5625 14.3125 C-19.81435231 17.80119933 -20.50907519 22.13316136 -21.5625 27.3125 C-23.70905501 27.00499629 -25.85473285 26.6913634 -28 26.375 C-29.79244141 26.11396484 -29.79244141 26.11396484 -31.62109375 25.84765625 C-34.5625 25.3125 -34.5625 25.3125 -35.5625 24.3125 C-35.89495156 16.21802725 -33.98599916 10.32787323 -28.5625 4.3125 C-20.89772044 -2.46102612 -9.49641706 -4.51170772 0 0 Z " fill="#030607" transform="translate(234.5625,217.6875)"/>
<path d="M0 0 C0.7321875 -0.01289063 1.464375 -0.02578125 2.21875 -0.0390625 C5.77806957 0.9970408 7.20700658 2.73367205 9.5 5.625 C10.22773891 8.64893902 10.20169817 11.58826823 10.1640625 14.6875 C10.16884613 15.55640869 10.17362976 16.42531738 10.17855835 17.32055664 C10.18195225 19.15285051 10.17278544 20.98520535 10.15185547 22.81738281 C10.12508023 25.61661219 10.15161803 28.41183233 10.18359375 31.2109375 C10.18028956 32.99480049 10.17388313 34.77866099 10.1640625 36.5625 C10.17418365 37.39595947 10.18430481 38.22941895 10.19473267 39.08813477 C10.10733988 43.4371125 9.89537471 45.12645606 7.10107422 48.64990234 C4.42137969 50.68469948 3.30614917 51.30820685 0 51.25 C-0.7321875 51.26289063 -1.464375 51.27578125 -2.21875 51.2890625 C-5.77806957 50.2529592 -7.20700658 48.51632795 -9.5 45.625 C-10.22773891 42.60106098 -10.20169817 39.66173177 -10.1640625 36.5625 C-10.16884613 35.69359131 -10.17362976 34.82468262 -10.17855835 33.92944336 C-10.18195225 32.09714949 -10.17278544 30.26479465 -10.15185547 28.43261719 C-10.12508023 25.63338781 -10.15161803 22.83816767 -10.18359375 20.0390625 C-10.18028956 18.25519951 -10.17388313 16.47133901 -10.1640625 14.6875 C-10.17418365 13.85404053 -10.18430481 13.02058105 -10.19473267 12.16186523 C-10.10733988 7.8128875 -9.89537471 6.12354394 -7.10107422 2.60009766 C-4.42137969 0.56530052 -3.30614917 -0.05820685 0 0 Z " fill="#75E5F9" transform="translate(287.5,230.375)"/>
<path d="M0 0 C2.70811843 2.56924056 4.83027847 5.05046412 6.75 8.25 C7.17796875 8.95640625 7.6059375 9.6628125 8.046875 10.390625 C8.36140625 10.92171875 8.6759375 11.4528125 9 12 C5.28725335 16.5565527 0.20992598 18.57400393 -5 21 C-7.67075765 17.13200616 -10.16320532 13.35030318 -12 9 C-10.67708855 5.03126566 -9.08850262 4.70094963 -5.4375 2.8125 C-4.42558594 2.28269531 -3.41367187 1.75289063 -2.37109375 1.20703125 C-1.58863281 0.80871094 -0.80617188 0.41039062 0 0 Z " fill="#010303" transform="translate(404,409)"/>
<path d="M0 0 C2.12560437 0.30836232 4.25047065 0.62181614 6.375 0.9375 C8.15003906 1.19853516 8.15003906 1.19853516 9.9609375 1.46484375 C13 2 13 2 15 3 C14.68917128 4.75029762 14.37626821 6.50022694 14.0625 8.25 C13.80146484 9.71179688 13.80146484 9.71179688 13.53515625 11.203125 C13.09620271 13.49721795 12.59651408 15.74291971 12 18 C11.41992188 17.86722656 10.83984375 17.73445313 10.2421875 17.59765625 C5.84229018 16.60295999 1.46105842 15.68631668 -3 15 C-2.68917128 13.24970238 -2.37626821 11.49977306 -2.0625 9.75 C-1.88847656 8.77546875 -1.71445312 7.8009375 -1.53515625 6.796875 C-1.09620271 4.50278205 -0.59651408 2.25708029 0 0 Z " fill="#F3FCFE" transform="translate(397,138)"/>
<path d="M0 0 C4.62 0.99 9.24 1.98 14 3 C13.51573772 8.3268851 12.93400486 12.97158737 11 18 C9.22868439 17.69024532 7.45796222 17.37709575 5.6875 17.0625 C4.20830078 16.80146484 4.20830078 16.80146484 2.69921875 16.53515625 C0 16 0 16 -3 15 C-2.88382356 13.62422639 -2.75654223 12.24938955 -2.625 10.875 C-2.55539062 10.10929688 -2.48578125 9.34359375 -2.4140625 8.5546875 C-2 6 -2 6 0 0 Z " fill="#F5FDFE" transform="translate(427,145)"/>
<path d="M0 0 C0.66 0.33 1.32 0.66 2 1 C1.4946875 1.48210937 0.989375 1.96421875 0.46875 2.4609375 C-0.1809375 3.09257812 -0.830625 3.72421875 -1.5 4.375 C-2.1496875 5.00148438 -2.799375 5.62796875 -3.46875 6.2734375 C-5.22117431 7.86475907 -5.22117431 7.86475907 -5 10 C-6.6796875 11.32421875 -6.6796875 11.32421875 -8.875 12.6875 C-9.95394531 13.37392578 -9.95394531 13.37392578 -11.0546875 14.07421875 C-12.01761719 14.53248047 -12.01761719 14.53248047 -13 15 C-13.66 14.67 -14.32 14.34 -15 14 C-10.05 9.38 -5.1 4.76 0 0 Z " fill="#6CD3E5" transform="translate(329,446)"/>
<path d="M0 0 C0.66 0.66 1.32 1.32 2 2 C0.02 3.32 -1.96 4.64 -4 6 C-4.66 5.67 -5.32 5.34 -6 5 C-4.02 3.35 -2.04 1.7 0 0 Z " fill="#5CB5C4" transform="translate(320,455)"/>
</svg>
